<svg xmlns="http://www.w3.org/2000/svg" version="1.1" xmlns:xlink="http://www.w3.org/1999/xlink" xmlns:svgjs="http://svgjs.dev/svgjs" width="1500" height="1500" viewBox="0 0 1500 1500"><rect width="1500" height="1500" fill="#ffffff"></rect><g transform="matrix(0.6666666666666666,0,0,0.6666666666666666,249.46713853373177,580.3686852228047)"><svg viewBox="0 0 397 134" data-background-color="#ffffff" preserveAspectRatio="xMidYMid meet" height="506" width="1500" xmlns="http://www.w3.org/2000/svg" xmlns:xlink="http://www.w3.org/1999/xlink"><g id="tight-bounds" transform="matrix(1,0,0,1,0.21154600210846297,0.38319025734435286)"><svg viewBox="0 0 395.5199999999999 133.23361948531132" height="133.23361948531132" width="395.5199999999999"><g><svg viewBox="0 0 566.2042686569694 190.7297837813553" height="133.23361948531132" width="395.5199999999999"><g transform="matrix(1,0,0,1,0,26.359904994384138)"><svg viewBox="0 0 395.52 138.00997379258703" height="138.00997379258703" width="395.52"><g id="textblocktransform"><svg viewBox="0 0 395.52 138.00997379258703" height="138.00997379258703" width="395.52" id="textblock"><g><svg viewBox="0 0 395.52 138.00997379258703" height="138.00997379258703" width="395.52"><g transform="matrix(1,0,0,1,0,0)"><svg width="395.52" viewBox="3.98 -39.5 130.41 45.51" height="138.00997379258703" data-palette-color="#336a86"><path d="M13.67-15.33L13.67 0 3.98 0 3.98-35.16 29.22-35.16 29.22-30.66 13.67-30.66 13.67-19.8 25.68-19.8 25.68-15.33 13.67-15.33ZM60.47-28.2L60.47 0 52.22 0 52.22-3.37Q50.75-1.37 48.69-0.4 46.63 0.56 44.16 0.56L44.16 0.56Q40.94 0.56 38.4-0.59 35.86-1.73 34.1-3.72 32.35-5.71 31.42-8.4 30.49-11.08 30.49-14.16L30.49-14.16Q30.49-17.24 31.42-19.92 32.35-22.61 34.1-24.6 35.86-26.59 38.4-27.73 40.94-28.88 44.16-28.88L44.16-28.88Q45.8-28.88 47.28-28.39 48.75-27.91 49.99-27.01 51.22-26.12 52.16-24.87 53.1-23.61 53.64-22.07L53.64-22.07 57.3-28.2 60.47-28.2ZM52.17-14.16L52.17-14.16Q52.17-15.26 52.06-16.48 51.95-17.7 51.68-18.9 51.41-20.09 50.94-21.18 50.46-22.27 49.72-23.11 48.97-23.95 47.92-24.44 46.87-24.93 45.48-24.93L45.48-24.93Q44.09-24.93 43.06-24.43 42.04-23.93 41.31-23.08 40.57-22.24 40.1-21.14 39.62-20.04 39.35-18.85 39.08-17.65 38.97-16.44 38.86-15.23 38.86-14.16L38.86-14.16Q38.86-13.09 38.97-11.87 39.08-10.64 39.35-9.45 39.62-8.25 40.1-7.15 40.57-6.05 41.31-5.21 42.04-4.37 43.06-3.87 44.09-3.37 45.48-3.37L45.48-3.37Q46.75-3.37 47.74-3.89 48.73-4.42 49.47-5.3 50.22-6.18 50.73-7.3 51.24-8.42 51.56-9.62 51.88-10.82 52.02-12 52.17-13.18 52.17-14.16ZM76.02-35.01L76.02-35.01Q76.02-34.08 75.67-33.25 75.31-32.42 74.7-31.81 74.09-31.2 73.26-30.85 72.43-30.49 71.5-30.49L71.5-30.49Q70.58-30.49 69.76-30.85 68.94-31.2 68.33-31.81 67.72-32.42 67.37-33.25 67.01-34.08 67.01-35.01L67.01-35.01Q67.01-35.94 67.37-36.76 67.72-37.57 68.33-38.18 68.94-38.79 69.76-39.15 70.58-39.5 71.5-39.5L71.5-39.5Q72.43-39.5 73.26-39.15 74.09-38.79 74.7-38.18 75.31-37.57 75.67-36.76 76.02-35.94 76.02-35.01ZM75.65-28.17L75.65 0 67.38 0 67.38-28.17 75.65-28.17ZM93.18-24.93L93.18 0 84.9 0 84.9-24.93 79.78-24.93 79.78-28.2 84.9-28.2 84.9-38.57 93.18-38.57 93.18-28.2 101.73-28.2 101.73-24.93 93.18-24.93ZM134.39-16.16L134.39-16.16Q134.39-13.31 133.69-10.21 133-7.1 131.75-4.13 130.51-1.15 128.77 1.48 127.04 4.1 124.97 6.01L124.97 6.01 121.87 4.32Q122.52 3.1 123.11 1.59 123.7 0.07 124.17-1.62 124.65-3.32 125.03-5.13 125.41-6.93 125.66-8.7 125.92-10.47 126.05-12.15 126.19-13.82 126.19-15.26L126.19-15.26Q126.19-16.21 126.11-17.3 126.04-18.38 125.81-19.47 125.58-20.56 125.19-21.56 124.79-22.56 124.15-23.32 123.5-24.07 122.59-24.54 121.67-25 120.42-25L120.42-25Q119.2-25 118.25-24.45 117.3-23.9 116.57-23.01 115.83-22.12 115.31-20.97 114.78-19.82 114.46-18.62 114.13-17.41 113.98-16.24 113.83-15.06 113.83-14.14L113.83-14.14 113.83 0 105.56 0 105.56-38.57 113.81-38.57 113.81-24.05Q115.4-26.37 117.7-27.62 120.01-28.88 122.82-28.88L122.82-28.88Q125.75-28.88 127.92-27.93 130.09-26.98 131.53-25.28 132.97-23.58 133.68-21.25 134.39-18.92 134.39-16.16Z" opacity="1" transform="matrix(1,0,0,1,0,0)" fill="#336a86" class="wordmark-text-0" data-fill-palette-color="primary" id="text-0"></path></svg></g></svg></g></svg></g></svg></g><g transform="matrix(1,0,0,1,428.10084257305874,0)"><svg viewBox="0 0 138.10342608391062 190.7297837813553" height="190.7297837813553" width="138.10342608391062"><g><svg xmlns="http://www.w3.org/2000/svg" xmlns:xlink="http://www.w3.org/1999/xlink" version="1.1" x="0" y="0" viewBox="17.41616829298858 5 65.16783170701143 90.001" enable-background="new 0 0 100 100" xml:space="preserve" height="190.7297837813553" width="138.10342608391062" class="icon-icon-0" data-fill-palette-color="accent" id="icon-0"><path fill-rule="evenodd" clip-rule="evenodd" d="M82.549 93.473V94.773A0.23 0.23 0 0 1 82.321 95.001H24.764C20.54 95.001 17.462 92.017 17.462 87.784V87.739C17.357 62.593 17.465 37.423 17.467 12.275 17.467 8.572 20.273 5.494 23.863 5.057 23.982 5.043 24.084 5.036 24.204 5.036L82.356 5C82.481 5 82.584 5.102 82.584 5.228V78.27A0.23 0.23 0 0 1 82.356 78.499H33.83V88.83L30.331 87.645 26.843 88.83V86.411H26.84V85.273H26.842V81.697H26.84V80.56H26.842V78.497A7.35 7.35 0 0 0 21.741 80.56H24.594V81.697H20.773A7.3 7.3 0 0 0 19.493 85.273H24.594V86.411H19.489A7.3 7.3 0 0 0 20.734 89.987H81.903A0.568 0.568 0 1 1 81.903 91.123H21.682A7.34 7.34 0 0 0 26.843 93.245H82.322A0.23 0.23 0 0 1 82.549 93.473M47.194 19.204V21.573H45.136V27.184H47.194V29.802H35.411V35.413H47.194V45.242L43.703 42.708V48.319L47.194 50.853V68.456H52.805V54.927L56.296 57.461V51.851L52.805 49.316V35.413H64.588V29.802H52.806V27.184H54.864V21.573H52.806V19.204zM36.048 80.561V81.698H81.903A0.57 0.57 0 0 0 81.903 80.562zM36.048 85.273V86.411H81.903A0.57 0.57 0 0 0 81.903 85.274H36.048z" fill="#283132" data-fill-palette-color="accent"></path></svg></g></svg></g></svg></g><defs></defs></svg><rect width="395.5199999999999" height="133.23361948531132" fill="none" stroke="none" visibility="hidden"></rect></g></svg></g></svg>